<svg width="33" height="33" viewBox="0 0 33 33" fill="none" xmlns="http://www.w3.org/2000/svg">
<g clip-path="url(#clip0_26_45)">
<path d="M16.5 0C7.38375 0 0 7.38375 0 16.5C0 23.8012 4.72312 29.9681 11.2819 32.1544C12.1069 32.2988 12.4162 31.8038 12.4162 31.3706C12.4162 30.9788 12.3956 29.6794 12.3956 28.2975C8.25 29.0606 7.1775 27.2869 6.8475 26.3587C6.66187 25.8844 5.8575 24.42 5.15625 24.0281C4.57875 23.7187 3.75375 22.9556 5.13563 22.935C6.435 22.9144 7.36313 24.1312 7.6725 24.6262C9.1575 27.1219 11.5294 26.4206 12.4781 25.9875C12.6225 24.915 13.0556 24.1931 13.53 23.7806C9.85875 23.3681 6.0225 21.945 6.0225 15.6337C6.0225 13.8394 6.66188 12.3544 7.71375 11.1994C7.54875 10.7869 6.97125 9.09562 7.87875 6.82687C7.87875 6.82687 9.26063 6.39375 12.4162 8.51813C13.7362 8.14688 15.1388 7.96125 16.5413 7.96125C17.9438 7.96125 19.3463 8.14688 20.6663 8.51813C23.8219 6.37313 25.2038 6.82687 25.2038 6.82687C26.1113 9.09562 25.5338 10.7869 25.3688 11.1994C26.4206 12.3544 27.06 13.8187 27.06 15.6337C27.06 21.9656 23.2031 23.3681 19.5319 23.7806C20.13 24.2962 20.6456 25.2863 20.6456 26.8331C20.6456 29.04 20.625 30.8138 20.625 31.3706C20.625 31.8038 20.9344 32.3194 21.7594 32.1544C25.0351 31.0489 27.8816 28.9438 29.8981 26.1355C31.9145 23.3272 32.9994 19.9572 33 16.5C33 7.38375 25.6163 0 16.5 0Z" fill="white"/>
</g>
<defs>
<clipPath id="clip0_26_45">
<rect width="33" height="33" fill="white"/>
</clipPath>
</defs>
</svg>
