<svg width="37" height="37" viewBox="0 0 37 37" fill="none" xmlns="http://www.w3.org/2000/svg">
<path d="M28.6902 13.712L30.5296 9.57393L34.6383 7.6699L30.4973 5.82407L28.5868 1.71245L26.7474 5.85052L22.6386 7.75455L26.7797 9.60038L28.6902 13.712Z" fill="white"/>
<path d="M28.7677 22.7117L26.9283 26.8497L22.8196 28.7538L26.9606 30.5996L28.8711 34.7112L30.7105 30.5732L34.8193 28.6691L30.6782 26.8233L28.7677 22.7117Z" fill="white"/>
<path d="M17.447 14.5413L13.6259 6.3181L9.94715 14.5942L1.72968 18.4023L10.0118 22.094L13.8328 30.3172L17.5116 22.0411L25.7291 18.233L17.447 14.5413ZM15.2272 19.7921L13.7704 23.0725L12.2572 19.8131L8.9745 18.3512L12.2316 16.8432L13.6884 13.5628L15.2015 16.8222L18.4843 18.2841L15.2272 19.7921Z" fill="white"/>
</svg>
