<svg width="303" height="57" viewBox="0 0 303 57" fill="none" xmlns="http://www.w3.org/2000/svg">
<path d="M28.6902 24.712L30.5296 20.5739L34.6383 18.6699L30.4973 16.8241L28.5868 12.7124L26.7474 16.8505L22.6386 18.7546L26.7797 20.6004L28.6902 24.712Z" fill="white"/>
<path d="M28.7677 33.7117L26.9283 37.8497L22.8196 39.7538L26.9606 41.5996L28.8711 45.7112L30.7105 41.5732L34.8193 39.6691L30.6782 37.8233L28.7677 33.7117Z" fill="white"/>
<path d="M17.447 25.5413L13.6259 17.3181L9.94715 25.5942L1.72968 29.4023L10.0118 33.094L13.8328 41.3172L17.5116 33.0411L25.7291 29.233L17.447 25.5413ZM15.2272 30.7921L13.7704 34.0725L12.2572 30.8131L8.9745 29.3512L12.2316 27.8432L13.6884 24.5628L15.2015 27.8222L18.4843 29.2841L15.2272 30.7921Z" fill="white"/>
<path d="M55.0168 39.1716C53.6828 39.181 52.4142 38.9193 51.2109 38.3864C50.0269 37.8535 48.9765 37.1165 48.0597 36.1756C47.1621 35.2153 46.4564 34.0989 45.9428 32.8265C45.4291 31.5541 45.1659 30.1736 45.153 28.685C45.1409 27.2737 45.3808 25.9476 45.8728 24.7068C46.3646 23.4466 47.0607 22.3397 47.9612 21.386C48.8617 20.4323 49.9186 19.6805 51.1319 19.1306C52.3452 18.5806 53.6671 18.3006 55.0978 18.2906C57.0311 18.2769 58.6876 18.6809 60.0674 19.5025C61.4664 20.3047 62.5197 21.3799 63.2273 22.7283L60.2594 24.9533C59.7286 23.9324 58.9872 23.1546 58.0352 22.6199C57.1026 22.0852 56.0853 21.8217 54.9833 21.8294C54.1133 21.8356 53.3222 22.0248 52.6101 22.3972C51.8979 22.7696 51.2836 23.2766 50.7671 23.9182C50.2507 24.5599 49.851 25.2974 49.5682 26.1307C49.3047 26.964 49.1769 27.8445 49.1849 28.7725C49.1934 29.7585 49.3463 30.6661 49.6434 31.4953C49.9599 32.3245 50.3915 33.0464 50.9382 33.6613C51.5041 34.2759 52.156 34.7644 52.8939 35.1265C53.6315 35.4693 54.445 35.6376 55.3343 35.6313C56.3783 35.6239 57.3716 35.3463 58.3142 34.7983C59.2762 34.2501 60.1683 33.4511 60.9906 32.4013L61.0247 36.3452C59.32 38.2132 57.3174 39.1554 55.0168 39.1716ZM60.6914 31.3304L56.5445 31.3597L56.5193 28.4308L63.9721 28.3782L64.0633 38.9628L60.7574 38.9861L60.6914 31.3304ZM66.0142 34.4539C66.0057 33.468 66.2689 32.6058 66.8039 31.8673C67.3581 31.1094 68.1264 30.5239 69.1089 30.111C70.0913 29.6981 71.2206 29.4871 72.4965 29.4781C73.1345 29.4736 73.7826 29.5173 74.4407 29.6094C75.0989 29.7014 75.6705 29.852 76.1557 30.0613L76.1487 29.2493C76.1404 28.2827 75.8439 27.5404 75.2595 27.0225C74.6943 26.5045 73.8511 26.2494 72.7298 26.2574C71.8985 26.2632 71.1071 26.4138 70.3556 26.7091C69.6041 27.0044 68.8151 27.4353 67.9886 28.0018L66.7197 25.4587C67.7193 24.7943 68.7397 24.2941 69.7808 23.9581C70.8413 23.6219 71.9515 23.4498 73.1115 23.4416C75.2768 23.4263 76.9634 23.9558 78.1714 25.0299C79.3987 26.104 80.021 27.6463 80.0383 29.6569L80.0801 34.4997C80.0836 34.9057 80.1538 35.1952 80.2906 35.3682C80.4468 35.5411 80.6893 35.6458 81.0183 35.6821L81.0456 38.843C80.6981 38.9034 80.3795 38.954 80.0899 38.9947C79.8195 39.0353 79.5877 39.0563 79.3944 39.0576C78.6211 39.0631 78.0299 38.8933 77.6209 38.5481C77.2313 38.2029 76.9859 37.7793 76.8849 37.2773L76.7912 36.4949C76.1412 37.3502 75.3252 38.0133 74.3432 38.4843C73.3613 38.9552 72.358 39.1943 71.3333 39.2015C70.328 39.2086 69.4176 39.012 68.6021 38.6118C67.8058 38.192 67.1726 37.6262 66.7024 36.9141C66.2514 36.1826 66.022 35.3626 66.0142 34.4539ZM75.4747 35.1702C75.6854 34.9367 75.8574 34.7035 75.9907 34.4705C76.124 34.2376 76.1899 34.0245 76.1882 33.8311L76.1749 32.2942C75.7093 32.1041 75.2054 31.9627 74.6632 31.8699C74.1209 31.7577 73.6081 31.7033 73.1248 31.7067C72.1195 31.7138 71.2901 31.942 70.6366 32.3913C70.0023 32.8211 69.6882 33.3936 69.6944 34.109C69.6977 34.4956 69.8072 34.8622 70.0228 35.2087C70.2385 35.5552 70.5503 35.8333 70.9581 36.0431C71.3659 36.2529 71.8501 36.3558 72.4108 36.3518C72.9908 36.3478 73.5602 36.2374 74.119 36.0208C74.6777 35.7848 75.1296 35.5013 75.4747 35.1702ZM92.3931 39.0529C91.2332 39.0611 90.1966 38.8074 89.2835 38.2919C88.3703 37.7763 87.6488 37.066 87.119 36.1611L87.1418 38.8L83.7489 38.8239L83.5663 17.6547L87.4522 17.6273L87.5267 26.269C88.0602 25.3565 88.7597 24.6362 89.6252 24.1081C90.51 23.5799 91.5421 23.3116 92.7214 23.3033C93.7073 23.2963 94.6081 23.5026 95.4238 23.9222C96.2393 24.3225 96.9402 24.8879 97.5265 25.6184C98.1321 26.3488 98.5937 27.1866 98.9112 28.1317C99.248 29.0767 99.4211 30.0905 99.4305 31.1731C99.4398 32.2557 99.2649 33.272 98.9057 34.2219C98.5659 35.1716 98.0802 36.0161 97.4485 36.7552C96.8167 37.475 96.0675 38.041 95.2011 38.4531C94.3538 38.8458 93.4178 39.0457 92.3931 39.0529ZM91.2917 35.7546C91.9103 35.7503 92.47 35.6303 92.9706 35.3948C93.4904 35.1398 93.9323 34.808 94.2961 34.3994C94.6792 33.9907 94.9652 33.515 95.1538 32.9723C95.3616 32.4102 95.463 31.8295 95.4578 31.2301C95.4506 30.3988 95.2701 29.6364 94.9161 28.9429C94.5812 28.2299 94.1123 27.6629 93.5093 27.2418C92.9257 26.8206 92.2375 26.6127 91.4449 26.6183C90.8842 26.6223 90.3441 26.7614 89.8244 27.0358C89.324 27.2907 88.8726 27.6418 88.4705 28.0894C88.0877 28.5367 87.7827 29.0416 87.5555 29.6038L87.5868 33.2287C87.7061 33.6145 87.8927 33.9612 88.1467 34.2688C88.4201 34.5762 88.7317 34.8447 89.0817 35.0742C89.4315 35.2844 89.7907 35.4559 90.1592 35.5886C90.5468 35.7019 90.9243 35.7572 91.2917 35.7546ZM111.074 26.7989C109.895 26.8072 108.843 27.0466 107.919 27.5171C106.995 27.9683 106.334 28.6207 105.935 29.4742L106.014 38.6668L102.128 38.6943L101.997 23.4988L105.564 23.4737L105.592 26.7215C106.124 25.6738 106.804 24.8473 107.63 24.2421C108.456 23.6369 109.333 23.3021 110.26 23.2375C110.473 23.236 110.637 23.2349 110.753 23.234C110.869 23.2332 110.966 23.2422 111.044 23.261L111.074 26.7989ZM113.343 38.6151L113.212 23.4197L117.098 23.3923L117.229 38.5877L113.343 38.6151ZM113.194 21.3028L113.16 17.4459L117.046 17.4185L117.079 21.2754L113.194 21.3028ZM127.784 38.8033C126.566 38.8119 125.462 38.6167 124.472 38.2176C123.483 37.7993 122.637 37.2349 121.935 36.5245C121.232 35.7948 120.684 34.9673 120.289 34.042C119.914 33.0973 119.722 32.103 119.713 31.059C119.7 29.6091 120.008 28.2825 120.635 27.0794C121.282 25.8762 122.202 24.9127 123.394 24.1889C124.606 23.4457 126.034 23.0682 127.677 23.0567C129.339 23.0449 130.764 23.4022 131.949 24.1285C133.135 24.8355 134.042 25.7862 134.671 26.9804C135.319 28.1552 135.649 29.4289 135.661 30.8015C135.663 31.0335 135.655 31.2752 135.638 31.5267C135.621 31.7588 135.603 31.9523 135.585 32.1071L123.84 32.1899C123.924 32.9627 124.153 33.6378 124.525 34.2152C124.917 34.7924 125.404 35.2336 125.986 35.5389C126.588 35.8246 127.227 35.9651 127.904 35.9604C128.677 35.9549 129.401 35.7661 130.074 35.394C130.767 35.0025 131.236 34.4965 131.482 33.8761L134.825 34.7805C134.465 35.5564 133.939 36.2465 133.248 36.8507C132.576 37.4548 131.778 37.9341 130.853 38.2886C129.928 38.6238 128.905 38.7954 127.784 38.8033ZM123.732 29.7256L131.678 29.6696C131.594 28.8968 131.366 28.2314 130.994 27.6734C130.641 27.0958 130.173 26.6545 129.59 26.3492C129.007 26.0247 128.358 25.8649 127.643 25.87C126.947 25.8749 126.311 26.0437 125.733 26.3764C125.175 26.6897 124.715 27.1376 124.353 27.7202C124.01 28.2833 123.803 28.9518 123.732 29.7256ZM137.883 17.2715L141.769 17.2441L141.909 33.5415C141.915 34.2375 142.035 34.7103 142.269 34.96C142.503 35.1904 142.823 35.3041 143.229 35.3012C143.539 35.299 143.857 35.2581 144.185 35.1785C144.513 35.0988 144.802 35.0001 145.053 34.8824L145.6 37.8366C145.08 38.0916 144.473 38.2892 143.778 38.4294C143.083 38.5697 142.456 38.6418 141.895 38.6457C140.677 38.6543 139.727 38.342 139.045 37.7088C138.382 37.0561 138.045 36.1305 138.035 34.9319L137.883 17.2715ZM146.215 33.8881C146.207 32.9022 146.47 32.04 147.005 31.3015C147.559 30.5436 148.328 29.9581 149.31 29.5452C150.292 29.1323 151.422 28.9213 152.698 28.9123C153.336 28.9078 153.984 28.9515 154.642 29.0436C155.3 29.1356 155.872 29.2862 156.357 29.4955L156.35 28.6835C156.341 27.7169 156.045 26.9746 155.461 26.4567C154.895 25.9387 154.052 25.6837 152.931 25.6916C152.1 25.6974 151.308 25.848 150.557 26.1433C149.805 26.4386 149.016 26.8695 148.19 27.4361L146.921 24.8929C147.92 24.2285 148.941 23.7283 149.982 23.3923C151.042 23.0562 152.153 22.884 153.313 22.8758C155.478 22.8605 157.165 23.39 158.373 24.4641C159.6 25.5382 160.222 27.0805 160.239 29.0911L160.281 33.9339C160.285 34.3399 160.355 34.6294 160.492 34.8024C160.648 34.9753 160.89 35.08 161.219 35.1163L161.247 38.2772C160.899 38.3377 160.581 38.3882 160.291 38.4289C160.021 38.4695 159.789 38.4905 159.595 38.4919C158.822 38.4973 158.231 38.3275 157.822 37.9824C157.432 37.6371 157.187 37.2135 157.086 36.7115L156.992 35.9292C156.342 36.7844 155.526 37.4475 154.544 37.9185C153.562 38.3894 152.559 38.6285 151.534 38.6357C150.529 38.6428 149.619 38.4462 148.803 38.046C148.007 37.6262 147.374 37.0604 146.904 36.3483C146.453 35.6168 146.223 34.7968 146.215 33.8881ZM155.676 34.6044C155.887 34.3709 156.058 34.1377 156.192 33.9048C156.325 33.6718 156.391 33.4587 156.389 33.2653L156.376 31.7284C155.91 31.5384 155.407 31.3969 154.864 31.3041C154.322 31.1919 153.809 31.1375 153.326 31.1409C152.321 31.148 151.491 31.3762 150.838 31.8255C150.203 32.2553 149.889 32.8279 149.895 33.5432C149.899 33.9298 150.008 34.2964 150.224 34.6429C150.44 34.9894 150.751 35.2675 151.159 35.4773C151.567 35.6871 152.051 35.79 152.612 35.7861C153.192 35.782 153.761 35.6716 154.32 35.455C154.879 35.219 155.331 34.9355 155.676 34.6044ZM169.957 27.7755C169.946 26.5189 170.158 25.2897 170.592 24.0879C171.045 22.8667 171.703 21.76 172.564 20.7679C173.426 19.7565 174.482 18.9564 175.734 18.3675C176.985 17.7594 178.413 17.4496 180.018 17.4383C181.912 17.4249 183.55 17.829 184.929 18.6507C186.329 19.4721 187.372 20.5475 188.06 21.8767L185.005 24.0153C184.65 23.2444 184.191 22.6386 183.626 22.1979C183.061 21.7379 182.459 21.4232 181.82 21.2537C181.18 21.0648 180.551 20.9726 179.932 20.977C178.927 20.9841 178.049 21.1933 177.299 21.6046C176.568 22.0157 175.953 22.5517 175.456 23.2126C174.959 23.8735 174.589 24.6108 174.345 25.4245C174.12 26.2381 174.011 27.0509 174.018 27.8629C174.025 28.7715 174.178 29.6501 174.475 30.4987C174.772 31.3279 175.185 32.0694 175.712 32.723C176.259 33.3572 176.902 33.865 177.64 34.2465C178.397 34.6085 179.22 34.7863 180.109 34.78C180.747 34.7755 181.394 34.6646 182.05 34.4474C182.705 34.2301 183.311 33.8874 183.868 33.4195C184.424 32.9516 184.854 32.3492 185.157 31.6124L188.45 33.4742C188.053 34.5017 187.394 35.3763 186.472 36.0982C185.569 36.8199 184.55 37.3685 183.412 37.7438C182.275 38.1192 181.145 38.3108 180.024 38.3187C178.555 38.3291 177.208 38.0389 175.985 37.4482C174.762 36.8382 173.701 36.0336 172.803 35.0346C171.924 34.0161 171.228 32.8803 170.715 31.6272C170.221 30.3547 169.968 29.0708 169.957 27.7755ZM196.839 35.01L208.201 20.8645L197.036 20.9433L197.006 17.4344L212.927 17.3221L212.953 20.338L201.967 34.4808L213.161 34.4019L213.191 37.9107L196.865 38.0259L196.839 35.01ZM215.468 32.2106L215.386 22.6989L219.271 22.6715L219.346 31.3422C219.356 32.5021 219.576 33.3803 220.007 33.9766C220.437 34.5535 221.068 34.8391 221.899 34.8332C222.402 34.8297 222.894 34.7296 223.376 34.5328C223.877 34.3166 224.328 34.0041 224.731 33.5952C225.153 33.1863 225.506 32.6714 225.791 32.0507L225.709 22.6261L229.595 22.5987L229.689 33.4443C229.692 33.8502 229.762 34.1398 229.899 34.3128C230.055 34.4857 230.298 34.5903 230.627 34.6267L230.654 37.7876C230.268 37.8483 229.94 37.8893 229.669 37.9105C229.418 37.9509 229.186 37.9719 228.974 37.9734C228.278 37.9783 227.706 37.8277 227.259 37.5215C226.831 37.1958 226.575 36.753 226.493 36.1929L226.396 34.9755C225.728 36.0049 224.865 36.794 223.806 37.3429C222.747 37.8723 221.58 38.1416 220.304 38.1506C218.738 38.1616 217.545 37.6674 216.724 36.6678C215.903 35.6489 215.484 34.1631 215.468 32.2106ZM247.711 37.6672L243.825 37.6946L243.751 29.169C243.741 27.951 243.52 27.0632 243.09 26.5056C242.66 25.9479 242.068 25.6717 241.314 25.6771C240.792 25.6807 240.261 25.8198 239.722 26.0943C239.203 26.3686 238.732 26.749 238.311 27.2353C237.89 27.7023 237.585 28.2458 237.397 28.8658L237.474 37.7394L233.588 37.7669L233.457 22.5714L236.966 22.5467L236.99 25.3596C237.371 24.6995 237.859 24.1451 238.455 23.6962C239.05 23.228 239.733 22.8751 240.505 22.6377C241.295 22.3808 242.125 22.2493 242.995 22.2431C243.943 22.2364 244.718 22.405 245.32 22.7487C245.941 23.073 246.409 23.5241 246.724 24.1019C247.057 24.6602 247.285 25.2966 247.407 26.0111C247.549 26.7254 247.622 27.4499 247.629 28.1846L247.711 37.6672ZM251.089 37.6434L250.958 22.448L254.844 22.4205L254.975 37.616L251.089 37.6434ZM250.94 20.331L250.907 16.4742L254.793 16.4468L254.826 20.3036L250.94 20.331ZM272.603 37.4916L268.718 37.519L268.644 28.9933C268.634 27.7754 268.413 26.8876 267.983 26.3299C267.553 25.7723 266.961 25.4961 266.207 25.5015C265.685 25.5051 265.154 25.6442 264.615 25.9187C264.096 26.193 263.625 26.5734 263.204 27.0597C262.783 27.5267 262.478 28.0702 262.29 28.6902L262.367 37.5638L258.481 37.5912L258.35 22.3958L261.859 22.3711L261.883 25.1839C262.264 24.5239 262.752 23.9695 263.348 23.5206C263.943 23.0524 264.626 22.6995 265.398 22.4621C266.188 22.2052 267.018 22.0736 267.888 22.0675C268.836 22.0608 269.61 22.2294 270.213 22.5731C270.834 22.8974 271.302 23.3485 271.616 23.9263C271.95 24.4846 272.178 25.121 272.3 25.8355C272.441 26.5498 272.515 27.2743 272.522 28.009L272.603 37.4916ZM283.003 37.7083C281.765 37.717 280.652 37.5218 279.663 37.1228C278.673 36.7044 277.827 36.1304 277.125 35.4007C276.442 34.6708 275.912 33.8335 275.537 32.8888C275.161 31.9441 274.969 30.9498 274.96 29.9058C274.951 28.8425 275.126 27.8359 275.485 26.886C275.844 25.9361 276.359 25.0915 277.029 24.3521C277.719 23.6125 278.555 23.0363 279.537 22.6233C280.52 22.1911 281.63 21.9706 282.867 21.9618C284.104 21.9531 285.208 22.158 286.178 22.5765C287.168 22.9755 288.014 23.5399 288.716 24.2696C289.418 24.9994 289.948 25.8366 290.304 26.7815C290.679 27.7262 290.872 28.7302 290.881 29.7935C290.89 30.8375 290.715 31.8344 290.355 32.7843C290.016 33.734 289.501 34.5787 288.811 35.3182C288.141 36.0576 287.315 36.6435 286.332 37.0758C285.35 37.4887 284.24 37.6995 283.003 37.7083ZM278.962 29.8776C278.97 30.7669 279.151 31.5583 279.505 32.2518C279.858 32.926 280.337 33.4543 280.939 33.8367C281.542 34.2191 282.22 34.4077 282.974 34.4024C283.709 34.3972 284.374 34.1992 284.97 33.8083C285.566 33.3981 286.035 32.8534 286.377 32.1743C286.738 31.4758 286.915 30.6818 286.908 29.7925C286.9 28.9226 286.71 28.1409 286.336 27.4475C285.982 26.754 285.504 26.216 284.901 25.8336C284.299 25.4512 283.63 25.2625 282.895 25.2677C282.141 25.273 281.467 25.4808 280.871 25.891C280.275 26.2819 279.806 26.8266 279.464 27.525C279.122 28.2041 278.954 28.9883 278.962 29.8776Z" fill="white"/>
</svg>
